<mxfile host="app.diagrams.net" modified="2022-08-09T14:28:25.389Z" agent="5.0 (Windows NT 10.0; Win64; x64) AppleWebKit/537.36 (KHTML, like Gecko) Chrome/103.0.0.0 Safari/537.36" etag="aVDDTHCj42P4Cbv-LkZh" version="20.2.3" type="github">
  <diagram name="Page-1" id="13e1069c-82ec-6db2-03f1-153e76fe0fe0">
    <mxGraphModel dx="2062" dy="786" grid="1" gridSize="10" guides="1" tooltips="1" connect="1" arrows="1" fold="1" page="1" pageScale="1" pageWidth="1920" pageHeight="1200" background="none" math="0" shadow="0">
      <root>
        <mxCell id="0" />
        <mxCell id="1" parent="0" />
        <mxCell id="7baba1c4bc27f4b0-3" value="logisticsex" style="shape=umlLifeline;perimeter=lifelinePerimeter;whiteSpace=wrap;html=1;container=1;collapsible=0;recursiveResize=0;outlineConnect=0;rounded=1;shadow=0;comic=0;labelBackgroundColor=none;strokeWidth=1;fontFamily=Verdana;fontSize=12;align=center;" parent="1" vertex="1">
          <mxGeometry x="501" y="130" width="100" height="540" as="geometry" />
        </mxCell>
        <mxCell id="7baba1c4bc27f4b0-13" value="" style="html=1;points=[];perimeter=orthogonalPerimeter;rounded=0;shadow=0;comic=0;labelBackgroundColor=none;strokeWidth=1;fontFamily=Verdana;fontSize=12;align=center;" parent="7baba1c4bc27f4b0-3" vertex="1">
          <mxGeometry x="45" y="250" width="10" height="60" as="geometry" />
        </mxCell>
        <mxCell id="XC6BqRoF2bmVDiK8bHI7-18" value="业务参数校验" style="html=1;verticalAlign=bottom;endArrow=block;labelBackgroundColor=none;fontFamily=Verdana;fontSize=12;elbow=vertical;edgeStyle=orthogonalEdgeStyle;curved=1;" parent="7baba1c4bc27f4b0-3" edge="1">
          <mxGeometry relative="1" as="geometry">
            <mxPoint x="55" y="264" as="sourcePoint" />
            <mxPoint x="55" y="302" as="targetPoint" />
            <Array as="points">
              <mxPoint x="115.5" y="264" />
              <mxPoint x="115.5" y="302" />
            </Array>
          </mxGeometry>
        </mxCell>
        <mxCell id="XC6BqRoF2bmVDiK8bHI7-42" value="&lt;font style=&quot;&quot;&gt;&lt;font style=&quot;font-size: 11px;&quot; color=&quot;#000000&quot;&gt;订单信息（&lt;/font&gt;&lt;span style=&quot;font-family: &amp;quot;Courier New&amp;quot;;&quot;&gt;&lt;font style=&quot;font-size: 10px;&quot; color=&quot;#000000&quot;&gt;asyn_order_scheduling&lt;/font&gt;&lt;/span&gt;&lt;span style=&quot;font-size: 11px; color: rgb(0, 0, 0);&quot;&gt;）&lt;/span&gt;&lt;/font&gt;" style="html=1;verticalAlign=bottom;endArrow=block;rounded=0;fontColor=#66FF66;curved=1;entryX=-0.2;entryY=0.057;entryDx=0;entryDy=0;entryPerimeter=0;" parent="7baba1c4bc27f4b0-3" edge="1">
          <mxGeometry width="80" relative="1" as="geometry">
            <mxPoint x="57" y="349" as="sourcePoint" />
            <mxPoint x="317" y="348.99" as="targetPoint" />
          </mxGeometry>
        </mxCell>
        <mxCell id="XC6BqRoF2bmVDiK8bHI7-60" value="" style="html=1;points=[];perimeter=orthogonalPerimeter;fontSize=10;fontColor=#000000;" parent="7baba1c4bc27f4b0-3" vertex="1">
          <mxGeometry x="45" y="397" width="10" height="74" as="geometry" />
        </mxCell>
        <mxCell id="Oqzg1-_yG6DZoDls_i9h-2" value="获取订单队列消息" style="html=1;verticalAlign=bottom;endArrow=block;rounded=0;labelBackgroundColor=none;fontSize=10;fontColor=#000000;strokeColor=#000000;curved=1;exitX=0.5;exitY=0;exitDx=0;exitDy=0;exitPerimeter=0;" parent="7baba1c4bc27f4b0-3" source="XC6BqRoF2bmVDiK8bHI7-60" edge="1">
          <mxGeometry width="80" relative="1" as="geometry">
            <mxPoint x="60" y="399" as="sourcePoint" />
            <mxPoint x="315" y="399" as="targetPoint" />
          </mxGeometry>
        </mxCell>
        <mxCell id="Oqzg1-_yG6DZoDls_i9h-3" value="筛选渠道" style="html=1;verticalAlign=bottom;endArrow=block;labelBackgroundColor=none;fontFamily=Verdana;fontSize=12;elbow=vertical;edgeStyle=orthogonalEdgeStyle;curved=1;" parent="7baba1c4bc27f4b0-3" edge="1">
          <mxGeometry relative="1" as="geometry">
            <mxPoint x="55" y="407" as="sourcePoint" />
            <mxPoint x="55" y="430" as="targetPoint" />
            <Array as="points">
              <mxPoint x="85" y="407" />
              <mxPoint x="85" y="430" />
              <mxPoint x="55" y="430" />
            </Array>
          </mxGeometry>
        </mxCell>
        <mxCell id="7baba1c4bc27f4b0-4" value="logisticsgw" style="shape=umlLifeline;perimeter=lifelinePerimeter;whiteSpace=wrap;html=1;container=1;collapsible=0;recursiveResize=0;outlineConnect=0;rounded=1;shadow=0;comic=0;labelBackgroundColor=none;strokeWidth=1;fontFamily=Verdana;fontSize=12;align=center;" parent="1" vertex="1">
          <mxGeometry x="641" y="130" width="100" height="540" as="geometry" />
        </mxCell>
        <mxCell id="XC6BqRoF2bmVDiK8bHI7-49" value="" style="html=1;points=[];perimeter=orthogonalPerimeter;rounded=0;shadow=0;comic=0;labelBackgroundColor=none;strokeWidth=1;fontFamily=Verdana;fontSize=12;align=center;" parent="7baba1c4bc27f4b0-4" vertex="1">
          <mxGeometry x="45" y="427" width="10" height="45" as="geometry" />
        </mxCell>
        <mxCell id="7baba1c4bc27f4b0-5" value="front(sf)" style="shape=umlLifeline;perimeter=lifelinePerimeter;whiteSpace=wrap;html=1;container=1;collapsible=0;recursiveResize=0;outlineConnect=0;rounded=1;shadow=0;comic=0;labelBackgroundColor=none;strokeWidth=1;fontFamily=Verdana;fontSize=12;align=center;" parent="1" vertex="1">
          <mxGeometry x="916" y="130" width="96" height="540" as="geometry" />
        </mxCell>
        <mxCell id="7baba1c4bc27f4b0-19" value="" style="html=1;points=[];perimeter=orthogonalPerimeter;rounded=0;shadow=0;comic=0;labelBackgroundColor=none;strokeWidth=1;fontFamily=Verdana;fontSize=12;align=center;" parent="7baba1c4bc27f4b0-5" vertex="1">
          <mxGeometry x="45" y="437" width="10" height="30" as="geometry" />
        </mxCell>
        <mxCell id="7baba1c4bc27f4b0-6" value="express" style="shape=umlLifeline;perimeter=lifelinePerimeter;whiteSpace=wrap;html=1;container=1;collapsible=0;recursiveResize=0;outlineConnect=0;rounded=1;shadow=0;comic=0;labelBackgroundColor=none;strokeWidth=1;fontFamily=Verdana;fontSize=12;align=center;" parent="1" vertex="1">
          <mxGeometry x="1073" y="130" width="100" height="540" as="geometry" />
        </mxCell>
        <mxCell id="7baba1c4bc27f4b0-16" value="" style="html=1;points=[];perimeter=orthogonalPerimeter;rounded=0;shadow=0;comic=0;labelBackgroundColor=none;strokeWidth=1;fontFamily=Verdana;fontSize=12;align=center;" parent="7baba1c4bc27f4b0-6" vertex="1">
          <mxGeometry x="45" y="437" width="10" height="30" as="geometry" />
        </mxCell>
        <mxCell id="7baba1c4bc27f4b0-8" value="merchant" style="shape=umlLifeline;perimeter=lifelinePerimeter;whiteSpace=wrap;html=1;container=1;collapsible=0;recursiveResize=0;outlineConnect=0;rounded=1;shadow=0;comic=0;labelBackgroundColor=none;strokeWidth=1;fontFamily=Verdana;fontSize=12;align=center;" parent="1" vertex="1">
          <mxGeometry x="340" y="130" width="100" height="540" as="geometry" />
        </mxCell>
        <mxCell id="7baba1c4bc27f4b0-9" value="" style="html=1;points=[];perimeter=orthogonalPerimeter;rounded=0;shadow=0;comic=0;labelBackgroundColor=none;strokeWidth=1;fontFamily=Verdana;fontSize=12;align=center;" parent="7baba1c4bc27f4b0-8" vertex="1">
          <mxGeometry x="45" y="100" width="10" height="80" as="geometry" />
        </mxCell>
        <mxCell id="XC6BqRoF2bmVDiK8bHI7-17" value="return" style="html=1;verticalAlign=bottom;endArrow=open;dashed=1;endSize=8;labelBackgroundColor=none;fontFamily=Verdana;fontSize=12;edgeStyle=elbowEdgeStyle;elbow=vertical;" parent="7baba1c4bc27f4b0-8" edge="1">
          <mxGeometry relative="1" as="geometry">
            <mxPoint x="-79" y="118" as="targetPoint" />
            <Array as="points">
              <mxPoint x="-19" y="118" />
              <mxPoint x="11" y="118" />
            </Array>
            <mxPoint x="40" y="118" as="sourcePoint" />
          </mxGeometry>
        </mxCell>
        <mxCell id="7baba1c4bc27f4b0-11" value="下单接口" style="html=1;verticalAlign=bottom;endArrow=block;labelBackgroundColor=none;fontFamily=Verdana;fontSize=12;edgeStyle=elbowEdgeStyle;elbow=vertical;" parent="1" edge="1">
          <mxGeometry relative="1" as="geometry">
            <mxPoint x="255.5" y="380" as="sourcePoint" />
            <mxPoint x="550" y="380" as="targetPoint" />
            <Array as="points">
              <mxPoint x="440" y="380" />
            </Array>
          </mxGeometry>
        </mxCell>
        <mxCell id="7baba1c4bc27f4b0-40" value="商户信息" style="shape=note;whiteSpace=wrap;html=1;size=14;verticalAlign=top;align=left;spacingTop=-6;rounded=0;shadow=0;comic=0;labelBackgroundColor=none;strokeWidth=1;fontFamily=Verdana;fontSize=12" parent="1" vertex="1">
          <mxGeometry x="340" y="80" width="100" height="35" as="geometry" />
        </mxCell>
        <mxCell id="7baba1c4bc27f4b0-42" value="数据转换，调度" style="shape=note;whiteSpace=wrap;html=1;size=14;verticalAlign=top;align=left;spacingTop=-6;rounded=0;shadow=0;comic=0;labelBackgroundColor=none;strokeWidth=1;fontFamily=Verdana;fontSize=12" parent="1" vertex="1">
          <mxGeometry x="501" y="80" width="100" height="35" as="geometry" />
        </mxCell>
        <mxCell id="7baba1c4bc27f4b0-43" value="渠道gateway" style="shape=note;whiteSpace=wrap;html=1;size=14;verticalAlign=top;align=left;spacingTop=-6;rounded=0;shadow=0;comic=0;labelBackgroundColor=none;strokeWidth=1;fontFamily=Verdana;fontSize=12" parent="1" vertex="1">
          <mxGeometry x="641" y="80" width="100" height="35" as="geometry" />
        </mxCell>
        <mxCell id="7baba1c4bc27f4b0-44" value="渠道" style="shape=note;whiteSpace=wrap;html=1;size=14;verticalAlign=top;align=left;spacingTop=-6;rounded=0;shadow=0;comic=0;labelBackgroundColor=none;strokeWidth=1;fontFamily=Verdana;fontSize=12" parent="1" vertex="1">
          <mxGeometry x="916" y="80" width="100" height="35" as="geometry" />
        </mxCell>
        <mxCell id="7baba1c4bc27f4b0-45" value="快递公司" style="shape=note;whiteSpace=wrap;html=1;size=14;verticalAlign=top;align=left;spacingTop=-6;rounded=0;shadow=0;comic=0;labelBackgroundColor=none;strokeWidth=1;fontFamily=Verdana;fontSize=12" parent="1" vertex="1">
          <mxGeometry x="1073" y="80" width="100" height="35" as="geometry" />
        </mxCell>
        <mxCell id="XC6BqRoF2bmVDiK8bHI7-1" value="openapi" style="shape=umlLifeline;perimeter=lifelinePerimeter;whiteSpace=wrap;html=1;container=1;collapsible=0;recursiveResize=0;outlineConnect=0;rounded=1;shadow=0;comic=0;labelBackgroundColor=none;strokeWidth=1;fontFamily=Verdana;fontSize=12;align=center;" parent="1" vertex="1">
          <mxGeometry x="206" y="130" width="100" height="540" as="geometry" />
        </mxCell>
        <mxCell id="XC6BqRoF2bmVDiK8bHI7-2" value="" style="html=1;points=[];perimeter=orthogonalPerimeter;rounded=0;shadow=0;comic=0;labelBackgroundColor=none;strokeWidth=1;fontFamily=Verdana;fontSize=12;align=center;" parent="XC6BqRoF2bmVDiK8bHI7-1" vertex="1">
          <mxGeometry x="45" y="100" width="10" height="400" as="geometry" />
        </mxCell>
        <mxCell id="XC6BqRoF2bmVDiK8bHI7-67" value="验签" style="html=1;verticalAlign=bottom;endArrow=block;labelBackgroundColor=none;fontFamily=Verdana;fontSize=12;elbow=vertical;edgeStyle=orthogonalEdgeStyle;curved=1;" parent="XC6BqRoF2bmVDiK8bHI7-1" edge="1">
          <mxGeometry relative="1" as="geometry">
            <mxPoint x="55" y="130" as="sourcePoint" />
            <mxPoint x="55" y="168" as="targetPoint" />
            <Array as="points">
              <mxPoint x="115.5" y="130" />
              <mxPoint x="115.5" y="168" />
            </Array>
          </mxGeometry>
        </mxCell>
        <mxCell id="XC6BqRoF2bmVDiK8bHI7-3" value="api网关" style="shape=note;whiteSpace=wrap;html=1;size=14;verticalAlign=top;align=left;spacingTop=-6;rounded=0;shadow=0;comic=0;labelBackgroundColor=none;strokeWidth=1;fontFamily=Verdana;fontSize=12" parent="1" vertex="1">
          <mxGeometry x="206" y="80" width="100" height="35" as="geometry" />
        </mxCell>
        <mxCell id="XC6BqRoF2bmVDiK8bHI7-5" value="" style="endArrow=classic;html=1;rounded=0;exitX=1;exitY=0.005;exitDx=0;exitDy=0;exitPerimeter=0;entryX=0.5;entryY=0.025;entryDx=0;entryDy=0;entryPerimeter=0;" parent="1" source="XC6BqRoF2bmVDiK8bHI7-2" target="7baba1c4bc27f4b0-9" edge="1">
          <mxGeometry width="50" height="50" relative="1" as="geometry">
            <mxPoint x="263" y="230" as="sourcePoint" />
            <mxPoint x="380" y="232" as="targetPoint" />
          </mxGeometry>
        </mxCell>
        <mxCell id="XC6BqRoF2bmVDiK8bHI7-6" value="获取商户信息" style="text;html=1;align=center;verticalAlign=middle;resizable=0;points=[];autosize=1;strokeColor=none;fillColor=none;" parent="1" vertex="1">
          <mxGeometry x="270" y="205" width="100" height="30" as="geometry" />
        </mxCell>
        <mxCell id="XC6BqRoF2bmVDiK8bHI7-37" value="kafka" style="shape=umlLifeline;perimeter=lifelinePerimeter;whiteSpace=wrap;html=1;container=1;collapsible=0;recursiveResize=0;outlineConnect=0;rounded=1;shadow=0;comic=0;labelBackgroundColor=none;strokeWidth=1;fontFamily=Verdana;fontSize=12;align=center;" parent="1" vertex="1">
          <mxGeometry x="775" y="130" width="96" height="540" as="geometry" />
        </mxCell>
        <mxCell id="XC6BqRoF2bmVDiK8bHI7-41" value="" style="html=1;points=[];perimeter=orthogonalPerimeter;rounded=0;shadow=0;comic=0;labelBackgroundColor=none;strokeWidth=1;fontFamily=Verdana;fontSize=12;align=center;" parent="XC6BqRoF2bmVDiK8bHI7-37" vertex="1">
          <mxGeometry x="41" y="332" width="10" height="70" as="geometry" />
        </mxCell>
        <mxCell id="XC6BqRoF2bmVDiK8bHI7-55" value="下单" style="html=1;verticalAlign=bottom;endArrow=block;rounded=0;labelBackgroundColor=none;fontSize=10;fontColor=#000000;curved=1;exitX=0.54;exitY=0.686;exitDx=0;exitDy=0;exitPerimeter=0;" parent="XC6BqRoF2bmVDiK8bHI7-37" edge="1">
          <mxGeometry width="80" relative="1" as="geometry">
            <mxPoint x="-79" y="439.3699999999999" as="sourcePoint" />
            <mxPoint x="186" y="437" as="targetPoint" />
          </mxGeometry>
        </mxCell>
        <mxCell id="XC6BqRoF2bmVDiK8bHI7-38" value="MQ" style="shape=note;whiteSpace=wrap;html=1;size=14;verticalAlign=top;align=left;spacingTop=-6;rounded=0;shadow=0;comic=0;labelBackgroundColor=none;strokeWidth=1;fontFamily=Verdana;fontSize=12" parent="1" vertex="1">
          <mxGeometry x="775" y="80" width="100" height="35" as="geometry" />
        </mxCell>
        <mxCell id="XC6BqRoF2bmVDiK8bHI7-39" value="" style="html=1;points=[];perimeter=orthogonalPerimeter;rounded=0;shadow=0;comic=0;labelBackgroundColor=none;strokeColor=#000000;strokeWidth=1;fillColor=#FFFFFF;fontFamily=Verdana;fontSize=12;fontColor=#000000;align=center;" parent="1" vertex="1">
          <mxGeometry x="547" y="463" width="10" height="54" as="geometry" />
        </mxCell>
        <mxCell id="XC6BqRoF2bmVDiK8bHI7-46" value="投递成功" style="html=1;verticalAlign=bottom;endArrow=open;dashed=1;endSize=8;rounded=0;fontColor=#000000;curved=1;entryX=1.4;entryY=0.378;entryDx=0;entryDy=0;entryPerimeter=0;" parent="1" edge="1">
          <mxGeometry relative="1" as="geometry">
            <mxPoint x="811" y="497" as="sourcePoint" />
            <mxPoint x="558" y="497.02" as="targetPoint" />
          </mxGeometry>
        </mxCell>
        <mxCell id="XC6BqRoF2bmVDiK8bHI7-50" value="下单" style="html=1;verticalAlign=bottom;endArrow=block;rounded=0;labelBackgroundColor=none;fontSize=10;fontColor=#000000;curved=1;entryX=0.2;entryY=0.222;entryDx=0;entryDy=0;entryPerimeter=0;" parent="1" edge="1">
          <mxGeometry width="80" relative="1" as="geometry">
            <mxPoint x="558" y="569" as="sourcePoint" />
            <mxPoint x="685" y="568.99" as="targetPoint" />
          </mxGeometry>
        </mxCell>
        <mxCell id="XC6BqRoF2bmVDiK8bHI7-56" value="下单结果" style="html=1;verticalAlign=bottom;endArrow=open;dashed=1;endSize=8;labelBackgroundColor=none;fontFamily=Verdana;fontSize=12;edgeStyle=elbowEdgeStyle;elbow=vertical;" parent="1" edge="1">
          <mxGeometry relative="1" as="geometry">
            <mxPoint x="696" y="592" as="targetPoint" />
            <Array as="points">
              <mxPoint x="945" y="592" />
              <mxPoint x="975" y="592" />
            </Array>
            <mxPoint x="961" y="592" as="sourcePoint" />
          </mxGeometry>
        </mxCell>
        <mxCell id="XC6BqRoF2bmVDiK8bHI7-58" value="下单结果" style="html=1;verticalAlign=bottom;endArrow=open;dashed=1;endSize=8;rounded=0;labelBackgroundColor=none;fontSize=10;fontColor=#000000;curved=1;entryX=1.2;entryY=0.871;entryDx=0;entryDy=0;entryPerimeter=0;exitX=-0.1;exitY=0.8;exitDx=0;exitDy=0;exitPerimeter=0;" parent="1" source="XC6BqRoF2bmVDiK8bHI7-49" target="XC6BqRoF2bmVDiK8bHI7-60" edge="1">
          <mxGeometry relative="1" as="geometry">
            <mxPoint x="683" y="609" as="sourcePoint" />
            <mxPoint x="559" y="539" as="targetPoint" />
          </mxGeometry>
        </mxCell>
        <mxCell id="XC6BqRoF2bmVDiK8bHI7-63" value="下单结果" style="html=1;verticalAlign=bottom;endArrow=open;dashed=1;endSize=8;rounded=0;labelBackgroundColor=none;fontSize=10;fontColor=#000000;curved=1;exitX=-0.1;exitY=0.852;exitDx=0;exitDy=0;exitPerimeter=0;" parent="1" edge="1" source="XC6BqRoF2bmVDiK8bHI7-39">
          <mxGeometry relative="1" as="geometry">
            <mxPoint x="540" y="511" as="sourcePoint" />
            <mxPoint x="260" y="510" as="targetPoint" />
          </mxGeometry>
        </mxCell>
        <mxCell id="XC6BqRoF2bmVDiK8bHI7-69" value="下单" style="html=1;verticalAlign=bottom;endArrow=block;rounded=0;labelBackgroundColor=none;fontSize=10;fontColor=#000000;curved=1;" parent="1" edge="1">
          <mxGeometry width="80" relative="1" as="geometry">
            <mxPoint x="971" y="567" as="sourcePoint" />
            <mxPoint x="1121" y="567" as="targetPoint" />
          </mxGeometry>
        </mxCell>
        <mxCell id="LduRgNbDQQ5q2EXzdvRS-1" value="基础参数校验" style="html=1;verticalAlign=bottom;endArrow=block;labelBackgroundColor=none;fontFamily=Verdana;fontSize=12;elbow=vertical;edgeStyle=orthogonalEdgeStyle;curved=1;" edge="1" parent="1">
          <mxGeometry relative="1" as="geometry">
            <mxPoint x="260" y="310" as="sourcePoint" />
            <mxPoint x="260" y="348" as="targetPoint" />
            <Array as="points">
              <mxPoint x="320.5" y="310" />
              <mxPoint x="320.5" y="348" />
            </Array>
          </mxGeometry>
        </mxCell>
        <mxCell id="LduRgNbDQQ5q2EXzdvRS-2" value="下单结果" style="html=1;verticalAlign=bottom;endArrow=open;dashed=1;endSize=8;rounded=0;" edge="1" parent="1">
          <mxGeometry relative="1" as="geometry">
            <mxPoint x="1111" y="587" as="sourcePoint" />
            <mxPoint x="971" y="587" as="targetPoint" />
          </mxGeometry>
        </mxCell>
      </root>
    </mxGraphModel>
  </diagram>
</mxfile>
